# xmcd
# Copyright (C) 1995-1998 Ti Kan
#
# Track frame offsets:
#       150
#       73486
#       158178
#
# Disc length: 3290 seconds
#
# Revision: 0
# Processed by: cddbd v1.4PL0 Copyright (c) Steve Scherf et al.
# Submitted via: CD-Transfer v1.0
#
DISCID=270cd803
DTITLE=Goldie Sendungen - 
DYEAR=1900
DGENRE=
TTITLE0=Soul food 1
TTITLE1=Soul food 2
TTITLE2=Soul food 3
EXTD=
EXTT0=
EXTT1=
EXTT2=
PLAYORDER=
